<?xml version="1.0" encoding="utf-8"?>
<!-- Generator: Adobe Illustrator 21.1.0, SVG Export Plug-In . SVG Version: 6.00 Build 0)  -->
<svg version="1.1" xmlns="http://www.w3.org/2000/svg" xmlns:xlink="http://www.w3.org/1999/xlink" x="0px" y="0px"
	 viewBox="0 0 3840 2160" style="enable-background:new 0 0 3840 2160;" xml:space="preserve">
<style type="text/css">
	.st0{fill:#F16822;}
	.st1{fill:#808285;}
	.st2{fill:#BCBEC0;}
</style>
<g id="Layer_1">
	<path class="st0" d="M2447.8,635c-51.2-29.6-97.1-44-136.2-49.8c-10.2-22.3-35.2-48.5-86-77.5c-166.7-95.2-333.3-1-333.3-1
		L1670,635l111.1,64.1l222.2-128.3c0,0,55.6-32.1,111.1,0c55.6,32.1,0,64.2,0,64.2l-222.2,128.3l0,0h0l111.1,64.1L2225.7,699
		c3.3-1.9,57.1-31,110.9,0.1c55.6,32.1,0,64.1,0,64.1l-222.2,128.3l111.1,64.2l277.8-160.4C2503.3,795.3,2614.4,731.2,2447.8,635z"
		/>
	<g>
		<path class="st1" d="M1670,635c0,0-55.6,32.1-55.6,96.2c0,64.2,0,320.4,0,320.4s0,64.2-55.6,32.1c-55.6-32.1-55.6-96.2-55.6-96.2
			s0-256.3,0-320.4c0-4,0.2-7.9,0.6-11.7c6.1-56.4,54.9-84.6,54.9-84.6l0,0l0,0l-111.1-64.1c0,0-0.1,0-0.2,0.1
			c-3.3,1.9-55.4,34-55.4,96.1c0,0,0,0,0,0c0,64.2,0,320.4,0,320.4s0,64.2-55.6,32.1c-55.6-32.1-55.6-96.2-55.6-96.2
			s0-256.3,0-320.4c0-64.1,55.6-96.2,55.6-96.2l-111.1-64.2c0,0-55.6,32.1-55.6,96.2c0,64.2,0,320.4,0,320.4s0,192.5,166.7,288.7
			c51.1,29.5,86.5,31.8,111.1,20.9c24.6,39.3,60,77.9,111.1,107.4c166.7,96.2,166.7-96.2,166.7-96.2s0-256.3,0-320.4
			c0-64.2,55.6-96.2,55.6-96.2L1670,635z"/>
		<polygon class="st2" points="1836.7,924.4 1947.8,988.5 1947.8,1116.8 1836.7,1052.7 		"/>
		<path class="st2" d="M2114.4,891.6c0,0-55.6,32.1-55.6,96.2c0,64.2,0,320.4,0,320.4s0,64.2-55.6,32.1
			c-55.6-32.1-55.6-96.2-55.6-96.2l-111.1-64.2c0,0,0,192.5,166.7,288.7c166.7,96.2,166.7-96.2,166.7-96.2s0-256.3,0-320.4
			c0-64.1,55.6-96.2,55.6-96.2L2114.4,891.6z"/>
		<path class="st2" d="M2447.8,1212.3l222.2,128.3v-128.3L2447.8,1084c0,0-166.7-93.8-166.7,96.2c0,190,166.7,288.7,166.7,288.7v0
			l55.6,32.1c0,0,55.6,32.1,55.6,96.2c0,64.2-55.6,32.1-55.6,32.1L2281.1,1501v128.3l222.2,128.3c0,0,166.7,96.2,166.7-96.2
			s-111.1-256.6-111.1-256.6l-111.1-64.1c0,0-55.6-32.1-55.6-96.2C2392.2,1180.2,2447.8,1212.3,2447.8,1212.3z"/>
	</g>
</g>
<g id="Layer_1_copy">
</g>
</svg>
